<?xml version="1.0" encoding="utf-8"?>
<!-- Generator: Adobe Illustrator 25.4.1, SVG Export Plug-In . SVG Version: 6.00 Build 0)  -->
<svg version="1.1" id="Capa_1" xmlns="http://www.w3.org/2000/svg" xmlns:xlink="http://www.w3.org/1999/xlink" x="0px" y="0px"
	 viewBox="0 0 102.9 146.9" style="enable-background:new 0 0 102.9 146.9;" xml:space="preserve">
<style type="text/css">
	.st0{fill:#4CBCC3;}
	.st1{fill:#1365A6;}
	.st2{fill:url(#Trazado_225_00000100341880170816692710000014126908387150987709_);}
	.st3{fill:url(#Trazado_226_00000095332478443792466650000011681231155865876877_);}
	.st4{fill:none;}
	.st5{fill:#FFFFFF;}
	.st6{fill:#1A2542;}
</style>
<g id="Grupo_159-2" transform="translate(15.866 93.459)">
	<path id="Trazado_221" class="st0" d="M58.4,35.8c-8,15.7-18.8,17.4-22,17.6v0c0,0,0.1,0-0.1,0s-0.1,0-0.1,0v0
		c-2.9-0.1-10.5-1.3-17.6-10.6c-1.7-2.2-3.2-4.5-4.4-7C4.7,17.5,11.5,2.8,11.5,2.8L36,2.7l0,0h0.1h0.1l0,0l10.5,0l14.1,0
		C60.9,2.8,67.6,17.5,58.4,35.8z"/>
	<path id="Trazado_222" class="st1" d="M61.1,3.2c0,1.3-5.8,2.3-14.1,2.8c-3.3,0.2-6.9,0.3-10.8,0.3c-13.8,0-24.9-1.4-24.9-3.2
		c0,0,0-0.1,0-0.1C11.7,1.4,22.7,0,36.2,0c3.8,0,7.5,0.1,10.7,0.3c7.5,0.5,12.9,1.4,14,2.5C61,2.8,61.1,2.9,61.1,3.2
		C61.1,3.1,61.1,3.1,61.1,3.2C61.1,3.1,61.2,3.2,61.1,3.2z"/>
	<path id="Trazado_223" class="st0" d="M54.7,21c5.9,15.3,12.1,27.2,16.1,26s3.6-15.1-1.7-30.5c-4-11.7-10.9-9.8-11.8-9.5
		C56,7.3,50,8.9,54.7,21z"/>
	<path id="Trazado_224" class="st0" d="M18.8,21C12.9,36.2,6.7,48.2,2.7,47S-1,31.9,4.4,16.4c4-11.7,10.9-9.8,11.8-9.5
		C17.5,7.3,23.5,8.9,18.8,21z"/>
</g>
<ellipse id="Elipse_24" class="st0" cx="51.5" cy="61.3" rx="43.8" ry="33.9"/>
<linearGradient id="Trazado_225_00000139991625924008887340000005546129400895629956_" gradientUnits="userSpaceOnUse" x1="-77.2378" y1="274.3264" x2="-78.2378" y2="274.3264" gradientTransform="matrix(56.546 0 0 -63.862 4462.8521 17582.3262)">
	<stop  offset="0" style="stop-color:#008484;stop-opacity:0.698"/>
	<stop  offset="1" style="stop-color:#008484;stop-opacity:0.102"/>
</linearGradient>
<path id="Trazado_225" style="fill:url(#Trazado_225_00000139991625924008887340000005546129400895629956_);" d="M95.4,61.3
	c0-13-9.5-24.3-23.4-30L38.8,93.8c4.2,1,8.4,1.5,12.7,1.4C75.7,95.2,95.4,80,95.4,61.3z"/>
<linearGradient id="Trazado_226_00000114784262580016656720000001467447631763138433_" gradientUnits="userSpaceOnUse" x1="-78.2265" y1="272.845" x2="-79.2265" y2="272.845" gradientTransform="matrix(73.2148 0 0 -50.1565 5816.7349 13806.7646)">
	<stop  offset="0" style="stop-color:#008484;stop-opacity:0.698"/>
	<stop  offset="1" style="stop-color:#008484;stop-opacity:0.102"/>
</linearGradient>
<path id="Trazado_226" style="fill:url(#Trazado_226_00000114784262580016656720000001467447631763138433_);" d="M18.6,140.4
	c2.7,0.9,6.5-4.5,10.5-12.9c0.3,0.6,0.5,1.2,0.8,1.7c1.2,2.5,2.7,4.8,4.4,7c7.2,9.3,14.7,10.4,17.6,10.6v0c0,0-0.1,0,0.1,0
	s0.1,0,0.1,0v0c3.2-0.2,14-1.8,22-17.6c0.5-1,1-2,1.4-3c4.2,9.1,8.2,15,11.1,14.1c4-1.3,3.6-15.1-1.7-30.5c-1.9-5.6-4.5-8.1-6.8-9.1
	c-0.3-1.4-0.7-2.7-1.2-4c-0.4,1.2-6,2.2-14.1,2.7c-3.3,0.2-6.9,0.3-10.8,0.3c-5.4,0-10.7-0.2-16.1-0.7l-19.8,37.3
	C16.6,138.6,17.4,140.1,18.6,140.4z"/>
<ellipse id="Elipse_25" class="st4" cx="51.5" cy="61.3" rx="43.8" ry="33.9"/>
<g id="Grupo_160" transform="translate(48.602)">
	
		<rect id="Rectángulo_116" x="-8" y="13.6" transform="matrix(1.518401e-03 -1 1 1.518401e-03 -11.3406 17.8846)" class="st1" width="22.6" height="2"/>
	<path id="Trazado_227" class="st1" d="M3.7,0c1.8,0.2,3.1,1.9,2.8,3.7C6.3,5.5,4.7,6.8,2.9,6.5C1.1,6.3-0.2,4.7,0,2.9
		c0.2-1.3,1.1-2.4,2.4-2.8C2.8,0,3.3,0,3.7,0z"/>
</g>
<path id="Trazado_228" class="st1" d="M10.2,72.7H8c-4.4,0-8-3.6-8-8l0,0V58c0-4.4,3.6-8,8-8h0h2.2C12.1,57.4,12.1,65.2,10.2,72.7z"
	/>
<path id="Trazado_229" class="st1" d="M92.7,50h2.2c4.4,0,8,3.6,8,8v0v6.7c0,4.4-3.6,8-8,8l0,0h-2.2C90.8,65.2,90.8,57.4,92.7,50z"
	/>
<path id="Trazado_230" class="st1" d="M40.2,30.3L40.2,30.3c0-5.7,4.6-10.2,10.2-10.2c0,0,0,0,0,0h2.2c5.7,0,10.2,4.6,10.2,10.2
	c0,0,0,0,0,0l0,0C55.4,32.2,47.6,32.2,40.2,30.3z"/>
<path id="Rectángulo_117" class="st5" d="M32,48.6h40c6.7,0,12.2,5.4,12.2,12.2l0,0c0,6.7-5.4,12.2-12.2,12.2H32
	c-6.7,0-12.2-5.4-12.2-12.2l0,0C19.8,54,25.3,48.6,32,48.6z"/>
<path id="Rectángulo_118" class="st6" d="M31.7,51.7h40.5c5,0,9.1,4.1,9.1,9.1l0,0c0,5-4.1,9-9.1,9H31.7c-5,0-9-4.1-9-9l0,0
	C22.7,55.7,26.7,51.7,31.7,51.7z"/>
<path id="Trazado_231" class="st5" d="M34.5,57.3c2.2,0,4,1.8,4,4c0,2.2-1.8,4-4,4c-2.2,0-4-1.8-4-4c0-1.6,1-3.1,2.5-3.7
	C33.5,57.4,34,57.3,34.5,57.3z"/>
<path id="Trazado_232" class="st5" d="M72.1,63.8c-0.1,0-0.1,0-0.2,0l-11.2,0l9.5-6.8c0.4-0.2,0.8-0.1,1.1,0.3
	c0.2,0.3,0.1,0.8-0.2,1l-5.5,3.9l6.3,0c0.4,0,0.8,0.4,0.8,0.8C72.7,63.4,72.5,63.7,72.1,63.8L72.1,63.8z"/>
</svg>
